# xmcd
#
# Track frame offsets:
#	150
#	10232
#	35503
#	53222
#	67895
#	89288
#	101146
#	141266
#	166765
#	178680
#	198719
#	214266
#	237050
#	245940
#
# Disc length: 3482 seconds
#
# Revision: 1
# Processed by: cddbd v1.5.2PL0 Copyright (c) Steve Scherf et al.
# Submitted via: audiograbber 1.83.01
#
DISCID=c80d980e
DTITLE=Hollywood Fats Band - Blues By the Pound - Vol 1 (Live 1979-80)
DYEAR=1979
DGENRE=Blues
TTITLE0=Introduction
TTITLE1=Chicken Shack Boogie
TTITLE2=She Split
TTITLE3=Reality Gone
TTITLE4=Soon Forgotten
TTITLE5=Okie Dokie Stomp
TTITLE6=Too Much Jelly Roll
TTITLE7=She Fooled Me This Time
TTITLE8=Tribute to T-Bone Walker
TTITLE9=Love Her with a Feeling
TTITLE10=Linda Lu
TTITLE11=Nit Wit
TTITLE12=Road Camp Blues
TTITLE13=Good Night
EXTD=
EXTT0=
EXTT1=
EXTT2=
EXTT3=
EXTT4=
EXTT5=
EXTT6=
EXTT7=
EXTT8=
EXTT9=
EXTT10=
EXTT11=
EXTT12=
EXTT13=
PLAYORDER=
